<svg width="185" height="180" viewBox="0 0 185 180" fill="none" xmlns="http://www.w3.org/2000/svg">
<path d="M158.984 19.6875H26.0156C22.8179 19.6875 20.2344 22.2012 20.2344 25.3125V154.688C20.2344 157.799 22.8179 160.312 26.0156 160.312H158.984C162.182 160.312 164.766 157.799 164.766 154.688V25.3125C164.766 22.2012 162.182 19.6875 158.984 19.6875ZM151.758 147.656H33.2422V32.3438H151.758V147.656Z" fill="black"/>
<path d="M59.4453 90.25H125.93C126.725 90.25 127.375 89.6172 127.375 88.8438V80.4062C127.375 79.6328 126.725 79 125.93 79H59.4453C58.6504 79 58 79.6328 58 80.4062V88.8438C58 89.6172 58.6504 90.25 59.4453 90.25Z" fill="black"/>
</svg>
