<svg width="185" height="180" viewBox="0 0 185 180" fill="none" xmlns="http://www.w3.org/2000/svg">
<path d="M59.2578 95.625H86.7188V122.344C86.7188 123.117 87.3691 123.75 88.1641 123.75H96.8359C97.6309 123.75 98.2812 123.117 98.2812 122.344V95.625H125.742C126.537 95.625 127.188 94.9922 127.188 94.2188V85.7812C127.188 85.0078 126.537 84.375 125.742 84.375H98.2812V57.6562C98.2812 56.8828 97.6309 56.25 96.8359 56.25H88.1641C87.3691 56.25 86.7188 56.8828 86.7188 57.6562V84.375H59.2578C58.4629 84.375 57.8125 85.0078 57.8125 85.7812V94.2188C57.8125 94.9922 58.4629 95.625 59.2578 95.625Z" fill="black"/>
<path d="M158.984 19.6875H26.0156C22.8179 19.6875 20.2344 22.2012 20.2344 25.3125V154.688C20.2344 157.799 22.8179 160.312 26.0156 160.312H158.984C162.182 160.312 164.766 157.799 164.766 154.688V25.3125C164.766 22.2012 162.182 19.6875 158.984 19.6875ZM151.758 147.656H33.2422V32.3438H151.758V147.656Z" fill="black"/>
</svg>
